{"title":"SpangaS op Survival-AC3-5,1-DVDRip-2009","uid":5340336,"size":1462693614,"categoryP":"video","categoryS":"movies","magnet":"?xt=urn:btih:bf4d9324be0e46c5a029d75107ad2ce803611137&amp;dn=SpangaS+op+Survival-AC3-5%2C1-DVDRip-2009&amp;tr=udp%3A%2F%2Ftracker.openbittorrent.com%3A80&amp;tr=udp%3A%2F%2Fopen.demonii.com%3A1337&amp;tr=udp%3A%2F%2Ftracker.coppersurfer.tk%3A6969&amp;tr=udp%3A%2F%2Fexodus.desync.com%3A6969","seeders":1,"leechers":0,"uploader":"FatFreddy31","files":-1,"time":1265456184,"description":" &lt;a href=&quot;http://www.imdb.com/title/tt1496883/&quot; rel=&quot;nofollow&quot; target=&quot;_NEW&quot;&gt;http://www.imdb.com/title/tt1496883/&lt;/a&gt;\n &lt;a href=&quot;\nhttp://www.moviemeter.nl/film/57892&quot; rel=&quot;nofollow&quot; target=&quot;_NEW&quot;&gt;\nhttp://www.moviemeter.nl/film/57892&lt;/a&gt;\n\nNederland\nDrama\n95 minuten\n\nGeregisseerd door Diede in 't Veld\nMet Talisia Misiedjan, Titia Hoogendoorn en Judy Doorman\n\nDe scholieren van het Spangalis College verlaten hun vertrouwde schoolomgeving en gaan op werkweek naar de Ardennen. Onder leiding van docent Jochem en Miss Madge (docente Engels) voeren de leerlingen in teams opdrachten uit met als hoogtepunt een zware dropping aan het eind van de week. De onderlinge verwikkelingen staan een soepele samenwerking in de weg. Hebben de scholieren zich het verloop van deze week iets te rooskleurig voorgesteld? Tijdens een zeer spannende reddingsactie worden de zaken op scherp gezet en ontdekt iedereen wat hij waard is.\n\nInfo:\n\nGeneral\nComplete name                    : SpangaS op Survival-AC3-5,1-DVDRip-2009.avi\nFormat                           : AVI\nFormat/Info                      : Audio Video Interleave\nFile size                        : 1.36 GiB\nDuration                         : 1h 28mn\nOverall bit rate                 : 2 205 Kbps\nWriting application              : VirtualDubMod 1.5.4.1 (build 2178/release)\nWriting library                  : VirtualDubMod build 2178/release\n\nVideo\nID                               : 0\nFormat                           : MPEG-4 Visual\nFormat profile                   : Simple@L3\nFormat settings, BVOP            : No\nFormat settings, QPel            : No\nFormat settings, GMC             : No warppoints\nFormat settings, Matrix          : Default (H.263)\nCodec ID                         : XVID\nCodec ID/Hint                    : XviD\nDuration                         : 1h 28mn\nBit rate                         : 1 747 Kbps\nWidth                            : 640 pixels\nHeight                           : 352 pixels\nDisplay aspect ratio             : 16:9\nFrame rate                       : 25.000 fps\nResolution                       : 24 bits\nColorimetry                      : 4:2:0\nScan type                        : Progressive\nBits/(Pixel*Frame)               : 0.310\nStream size                      : 1.08 GiB (79%)\nWriting library                  : XviD 1.1.2 (UTC 2006-11-01)\n\nAudio\nID                               : 1\nFormat                           : AC-3\nFormat/Info                      : Audio Coding 3\nCodec ID                         : 2000\nDuration                         : 1h 28mn\nBit rate mode                    : Constant\nBit rate                         : 448 Kbps\nChannel(s)                       : 6 channels\nChannel positions                : Front: L C R, Surround: L R, LFE\nSampling rate                    : 48.0 KHz\nStream size                      : 283 MiB (20%)\nAlignment                        : Split accross interleaves\nInterleave, duration             : 40 ms (1.00 video frame)\nInterleave, preload duration     : 500 ms\n\nVeel plezier met deze film.","torrent":{"xt":"urn:btih:bf4d9324be0e46c5a029d75107ad2ce803611137","amp;dn":"SpangaS+op+Survival-AC3-5%2C1-DVDRip-2009","amp;tr":["udp%3A%2F%2Ftracker.openbittorrent.com%3A80","udp%3A%2F%2Fopen.demonii.com%3A1337","udp%3A%2F%2Ftracker.coppersurfer.tk%3A6969","udp%3A%2F%2Fexodus.desync.com%3A6969"],"infoHash":"bf4d9324be0e46c5a029d75107ad2ce803611137","infoHashBuffer":{"type":"Buffer","data":[191,77,147,36,190,14,70,197,160,41,215,81,7,173,44,232,3,97,17,55]},"announce":[],"urlList":[]}}